<svg version="1.1" viewBox="0.0 0.0 152.0 152.0" fill="none" stroke="none" stroke-linecap="square" stroke-miterlimit="10" xmlns:xlink="http://www.w3.org/1999/xlink" xmlns="http://www.w3.org/2000/svg"><clipPath id="p.0"><path d="m0 0l152.0 0l0 152.0l-152.0 0l0 -152.0z" clip-rule="nonzero"/></clipPath><g clip-path="url(#p.0)"><path fill="#000000" fill-opacity="0.0" d="m0 0l152.0 0l0 152.0l-152.0 0z" fill-rule="evenodd"/><path fill="#000000" d="m2.887139E-6 0l151.9685 0l0 151.9685l-151.9685 0z" fill-rule="evenodd"/><path fill="#212121" d="m12.207507 121.60006l22.57584 -94.400764l21.243725 0l-22.57584 94.400764z" fill-rule="evenodd"/><path fill="#212121" d="m98.18632 125.99956l22.575836 -94.40076l21.243721 0l-22.575836 94.40076z" fill-rule="evenodd"/><path fill="#ffffff" d="m7.0656495 110.58233l0 0c0 -9.878647 8.008226 -17.886871 17.886875 -17.886871l0 0c4.7438927 0 9.293489 1.8845062 12.647928 5.238945c3.3544388 3.3544388 5.238945 7.9040375 5.238945 12.647926l0 0c0 9.878647 -8.0082245 17.886879 -17.886873 17.886879l0 0c-9.878649 0 -17.886875 -8.008232 -17.886875 -17.886879z" fill-rule="evenodd"/><path fill="#ffffff" d="m108.831764 41.30353l0 0c0 -9.878645 8.008232 -17.886871 17.886879 -17.886871l0 0c4.7438965 0 9.293488 1.8845043 12.647934 5.238943c3.3544312 3.3544407 5.2389374 7.9040356 5.2389374 12.647928l0 0c0 9.878651 -8.0082245 17.886875 -17.886871 17.886875l0 0c-9.878647 0 -17.886879 -8.0082245 -17.886879 -17.886875z" fill-rule="evenodd"/><path fill="#ffffff" d="m119.003914 126.00298l-63.20693 -98.80369l-21.025177 0l63.20693 98.80369z" fill-rule="evenodd"/></g></svg>